<?xml version="1.0" standalone="no"?>
<!DOCTYPE svg PUBLIC "-//W3C//DTD SVG 20010904//EN"
 "http://www.w3.org/TR/2001/REC-SVG-20010904/DTD/svg10.dtd">
<svg version="1.0" xmlns="http://www.w3.org/2000/svg"
 width="800.000000pt" height="600.000000pt" viewBox="0 0 800.000000 600.000000"
 preserveAspectRatio="xMidYMid meet">
<metadata>
Created by potrace 1.15, written by Peter Selinger 2001-2017
</metadata>
<g transform="translate(0.000000,600.000000) scale(0.100000,-0.100000)"
fill="#000000" stroke="none">
<path d="M0 3000 l0 -3000 4000 0 4000 0 0 3000 0 3000 -4000 0 -4000 0 0
-3000z m2672 -23 c147 -307 268 -562 268 -567 0 -6 -58 -10 -141 -10 l-140 0
-147 301 -147 301 -108 -224 c-59 -123 -124 -258 -144 -300 l-37 -78 -143 0
c-79 0 -143 3 -143 8 0 4 54 120 120 257 66 138 196 406 288 597 l167 348 19
-38 c10 -20 140 -288 288 -595z m398 153 l0 -480 300 0 300 0 0 -125 0 -125
-328 0 -329 0 -112 233 -111 232 0 373 0 372 140 0 140 0 0 -480z m932 443
c93 -44 160 -109 205 -200 122 -247 -24 -544 -295 -602 -29 -6 -96 -11 -147
-11 l-95 0 0 -30 0 -30 -140 0 -141 0 3 153 3 152 245 5 c270 6 287 9 330 71
49 67 46 157 -6 219 -53 62 -65 65 -331 68 l-243 4 0 119 0 120 273 -3 272 -3
67 -32z m448 -203 l0 -240 250 0 250 0 0 240 0 240 135 0 135 0 -1 -367 0
-368 -113 -235 c-91 -188 -118 -236 -135 -238 -21 -3 -21 -3 -21 237 l0 241
-250 0 -250 0 0 -240 0 -241 -137 3 -138 3 -3 224 -2 225 41 58 c63 90 83 155
83 273 1 119 -16 176 -80 272 -35 53 -44 74 -44 109 l0 44 140 0 140 0 0 -240z
m1482 -374 c149 -309 274 -569 279 -578 9 -17 0 -18 -139 -18 l-149 0 -138
288 c-75 158 -141 293 -144 300 -4 8 -66 -110 -151 -288 l-144 -300 -148 0
-147 0 48 103 c27 56 146 305 266 552 120 248 229 474 243 504 l25 54 15 -28
c8 -15 136 -280 284 -589z"/>
</g>
</svg>
